<svg width="16" height="16" viewBox="0 0 16 16" fill="none" xmlns="http://www.w3.org/2000/svg">
<rect width="16" height="16" fill="#D9D9D9"/>
<path d="M7.512 12.228C7.2 12.228 6.852 12.176 6.468 12.072C6.084 11.976 5.696 11.82 5.304 11.604C4.92 11.388 4.564 11.108 4.236 10.764C3.916 10.42 3.656 10.008 3.456 9.528C3.264 9.048 3.168 8.492 3.168 7.86C3.168 7.252 3.264 6.716 3.456 6.252C3.656 5.788 3.916 5.388 4.236 5.052C4.556 4.716 4.908 4.444 5.292 4.236C5.684 4.028 6.076 3.876 6.468 3.78C6.86 3.676 7.22 3.624 7.548 3.624C7.956 3.624 8.316 3.676 8.628 3.78C8.94 3.876 9.192 3.98 9.384 4.092C9.584 4.196 9.708 4.264 9.756 4.296C9.916 4.4 10.064 4.516 10.2 4.644C10.344 4.764 10.416 4.928 10.416 5.136C10.416 5.24 10.392 5.348 10.344 5.46C10.304 5.572 10.24 5.688 10.152 5.808C9.992 6.032 9.84 6.196 9.696 6.3C9.56 6.404 9.424 6.456 9.288 6.456C9.184 6.456 9.084 6.432 8.988 6.384C8.892 6.336 8.776 6.268 8.64 6.18C8.584 6.14 8.512 6.096 8.424 6.048C8.336 5.992 8.216 5.944 8.064 5.904C7.912 5.856 7.712 5.832 7.464 5.832C7.256 5.832 7.028 5.872 6.78 5.952C6.54 6.024 6.312 6.144 6.096 6.312C5.88 6.472 5.704 6.688 5.568 6.96C5.432 7.224 5.364 7.544 5.364 7.92C5.364 8.304 5.432 8.628 5.568 8.892C5.712 9.156 5.892 9.372 6.108 9.54C6.324 9.7 6.552 9.82 6.792 9.9C7.04 9.972 7.264 10.008 7.464 10.008C7.672 10.008 7.848 9.992 7.992 9.96C8.136 9.92 8.264 9.868 8.376 9.804C8.496 9.74 8.604 9.676 8.7 9.612C8.788 9.548 8.884 9.492 8.988 9.444C9.092 9.396 9.196 9.372 9.3 9.372C9.436 9.372 9.572 9.428 9.708 9.54C9.844 9.652 9.988 9.824 10.14 10.056C10.228 10.192 10.292 10.32 10.332 10.44C10.38 10.552 10.404 10.656 10.404 10.752C10.404 10.952 10.332 11.112 10.188 11.232C10.052 11.352 9.904 11.46 9.744 11.556C9.688 11.588 9.568 11.66 9.384 11.772C9.2 11.884 8.952 11.988 8.64 12.084C8.328 12.18 7.952 12.228 7.512 12.228Z" fill="#00D19F"/>
<path d="M9.968 11.064C9.728 11.064 9.55733 11.0293 9.456 10.96C9.35467 10.8853 9.29333 10.792 9.272 10.68C9.25067 10.5627 9.24 10.4427 9.24 10.32V6.192C9.24 6.07467 9.25067 5.96 9.272 5.848C9.29333 5.736 9.35467 5.64533 9.456 5.576C9.55733 5.50133 9.73067 5.464 9.976 5.464H11.848C12.1733 5.464 12.464 5.544 12.72 5.704C12.976 5.85867 13.1787 6.06667 13.328 6.328C13.4773 6.58933 13.552 6.872 13.552 7.176C13.552 7.27733 13.5413 7.38133 13.52 7.488C13.504 7.58933 13.4747 7.69067 13.432 7.792C13.3947 7.888 13.3467 7.98133 13.288 8.072C13.3787 8.184 13.456 8.30667 13.52 8.44C13.584 8.568 13.632 8.70133 13.664 8.84C13.696 8.97333 13.712 9.10933 13.712 9.248C13.7067 9.504 13.656 9.744 13.56 9.968C13.4693 10.1867 13.3413 10.3787 13.176 10.544C13.0107 10.704 12.8213 10.832 12.608 10.928C12.3947 11.0187 12.168 11.064 11.928 11.064H9.968ZM10.704 9.6H11.848C11.8853 9.6 11.936 9.59467 12 9.584C12.064 9.568 12.12 9.53067 12.168 9.472C12.2213 9.408 12.248 9.304 12.248 9.16C12.248 9.08533 12.24 9.024 12.224 8.976C12.2133 8.92267 12.1947 8.88267 12.168 8.856C12.1413 8.824 12.1093 8.80267 12.072 8.792C12.04 8.776 12 8.76533 11.952 8.76C11.9093 8.75467 11.8613 8.752 11.808 8.752H11.704C11.4907 8.752 11.3387 8.70667 11.248 8.616C11.1573 8.52533 11.112 8.36533 11.112 8.136C11.112 7.91733 11.16 7.76533 11.256 7.68C11.3573 7.58933 11.52 7.544 11.744 7.544H11.84C11.8827 7.544 11.92 7.54133 11.952 7.536C11.984 7.53067 12.008 7.51733 12.024 7.496C12.0453 7.47467 12.0613 7.44533 12.072 7.408C12.0827 7.36533 12.088 7.30933 12.088 7.24C12.088 7.11733 12.0587 7.03467 12 6.992C11.9467 6.94933 11.8373 6.928 11.672 6.928H10.704V9.6Z" fill="black"/>
</svg>
